<svg xmlns="http://www.w3.org/2000/svg" viewBox="0 0 128 128" role="img" aria-labelledby="title desc">
  <title id="title">All-In Post-Training icon</title>
  <desc id="desc">A layered post-training panorama mark with orbiting nodes.</desc>
  <defs>
    <linearGradient id="g" x1="18" y1="18" x2="110" y2="110" gradientUnits="userSpaceOnUse">
      <stop stop-color="#38bdf8"/>
      <stop offset="0.52" stop-color="#6366f1"/>
      <stop offset="1" stop-color="#14b8a6"/>
    </linearGradient>
    <filter id="shadow" x="-20%" y="-20%" width="140%" height="140%">
      <feDropShadow dx="0" dy="8" stdDeviation="10" flood-color="#0f172a" flood-opacity="0.18"/>
    </filter>
  </defs>
  <rect width="128" height="128" rx="28" fill="#0f172a"/>
  <circle cx="64" cy="64" r="42" fill="none" stroke="url(#g)" stroke-width="8" opacity="0.95" filter="url(#shadow)"/>
  <path d="M31 69c12-19 29-30 51-33 7-1 12-1 16 0-9 7-18 16-27 28-10 12-20 21-31 27-5 2-9 4-13 5 0-8 1-17 4-27Z" fill="url(#g)" opacity="0.9"/>
  <circle cx="39" cy="43" r="7" fill="#e0f2fe"/>
  <circle cx="91" cy="38" r="6" fill="#ccfbf1"/>
  <circle cx="92" cy="91" r="8" fill="#dbeafe"/>
  <circle cx="55" cy="73" r="13" fill="#f8fafc"/>
  <path d="M51 73h8m-4-4v8" stroke="#2563eb" stroke-width="4" stroke-linecap="round"/>
</svg>

